<?xml version="1.0" standalone="no"?>
<!DOCTYPE svg PUBLIC "-//W3C//DTD SVG 20010904//EN"
 "http://www.w3.org/TR/2001/REC-SVG-20010904/DTD/svg10.dtd">
<svg version="1.0" xmlns="http://www.w3.org/2000/svg"
 width="899.000000pt" height="899.000000pt" viewBox="0 0 899.000000 899.000000"
 preserveAspectRatio="xMidYMid meet">
<metadata>
Created by potrace 1.14, written by Peter Selinger 2001-2017
</metadata>
<g transform="translate(0.000000,899.000000) scale(0.100000,-0.100000)"
fill="#000000" stroke="none">
<path d="M0 4495 l0 -4495 1613 0 1612 0 89 86 c160 154 282 240 546 381 74
41 179 73 236 73 69 0 88 20 123 129 16 48 14 51 -19 45 -41 -9 -78 3 -85 26
-9 27 -13 26 -69 -20 -38 -32 -56 -40 -87 -40 -33 0 -42 5 -58 30 l-18 30 -11
-22 c-21 -46 -123 -162 -211 -242 -106 -97 -184 -139 -292 -157 -71 -12 -78
-11 -120 9 -63 30 -84 70 -84 157 0 56 5 79 25 115 42 74 127 108 197 78 57
-24 93 -89 78 -139 -6 -18 -4 -20 17 -14 37 12 237 156 269 194 35 43 39 91 9
121 -26 26 -41 25 -187 -11 -91 -22 -136 -28 -168 -24 -92 14 -145 73 -145
163 0 69 24 115 107 202 80 85 131 123 248 185 78 41 100 48 165 52 41 3 93 0
116 -6 55 -15 96 -67 102 -130 13 -142 -154 -269 -265 -201 -33 20 -57 77 -46
106 5 12 10 11 29 -7 39 -36 115 -15 135 38 5 13 6 29 3 37 -9 23 -60 39 -101
32 -53 -10 -189 -89 -247 -145 -139 -133 -131 -192 24 -162 170 33 175 34 216
22 56 -15 104 -49 134 -95 l24 -38 20 44 c10 23 33 81 50 128 31 85 31 85 74
94 23 5 45 6 48 3 7 -7 -28 -119 -65 -207 -17 -40 -31 -76 -31 -81 0 -19 27
-7 62 27 39 37 56 68 116 210 l38 89 40 0 c36 0 39 -2 36 -25 -2 -14 -27 -85
-54 -158 -42 -110 -48 -135 -38 -148 23 -26 53 -12 77 36 18 37 60 162 115
338 9 30 13 32 54 32 42 0 44 -1 38 -24 -5 -22 -3 -23 37 -23 58 0 99 -44 99
-105 0 -43 -32 -164 -56 -210 -17 -33 -7 -36 28 -8 18 13 27 33 31 65 12 83
67 171 149 235 40 33 58 40 93 40 80 0 115 -68 74 -145 -30 -56 -105 -142
-151 -172 -43 -29 -38 -50 9 -39 57 15 207 203 202 254 -7 74 6 86 71 61 58
-22 92 -19 125 11 11 10 32 21 47 25 21 6 27 3 33 -16 6 -17 2 -28 -18 -44
-56 -49 -145 -156 -150 -182 -15 -82 33 -72 127 27 42 44 83 80 91 80 23 0 28
-19 11 -45 -16 -24 -16 -25 9 -25 13 0 43 -7 66 -17 52 -20 50 -23 129 142 64
134 103 181 198 240 34 21 60 41 57 45 -7 11 -89 30 -133 30 -50 0 -125 -26
-148 -51 -21 -23 -23 -77 -3 -90 8 -5 29 -8 46 -5 39 6 47 -4 32 -37 -28 -62
-138 -97 -196 -62 -113 67 -72 224 78 299 123 62 235 57 405 -16 139 -60 168
-104 180 -280 7 -89 -11 -189 -42 -236 -29 -44 -2 -37 41 10 47 53 75 104 75
140 0 14 8 33 19 42 18 16 20 15 51 -24 44 -56 68 -60 125 -19 25 18 47 30 49
28 2 -2 11 -18 19 -36 l16 -31 -42 -34 c-23 -19 -61 -47 -85 -62 -72 -45 -98
-137 -34 -121 67 16 98 41 164 133 36 51 68 98 71 105 3 9 10 9 30 -2 15 -8
27 -18 27 -23 0 -5 -25 -50 -55 -101 -63 -105 -68 -127 -27 -127 40 1 84 47
132 139 50 96 73 105 78 30 2 -33 -4 -63 -22 -103 -32 -72 -37 -98 -39 -221
-3 -117 -25 -170 -92 -217 -39 -28 -42 -29 -145 -24 -94 4 -199 21 -360 58
-38 9 -143 13 -345 12 -249 -1 -306 -4 -400 -22 -60 -12 -180 -28 -265 -37
-85 -9 -175 -22 -200 -30 -25 -8 -106 -24 -180 -35 -148 -23 -321 -57 -357
-71 -13 -5 -23 -5 -23 -1 -1 26 -20 -32 -26 -76 -7 -60 -23 -72 -95 -72 -34 0
-40 3 -35 18 2 9 8 32 11 51 7 33 7 34 -21 27 -68 -16 -152 -67 -196 -119 -51
-60 -82 -104 -91 -129 -6 -17 122 -18 2598 -18 l2605 0 0 2019 0 2018 -91 5
c-58 4 -94 10 -99 18 -5 8 -17 10 -31 7 -28 -8 -49 8 -49 38 0 12 16 52 36 89
19 37 33 70 30 73 -3 4 -2 11 4 18 5 6 11 27 13 47 2 20 15 51 28 70 14 18 36
51 49 73 13 22 28 43 33 46 5 4 6 17 2 29 -4 14 0 45 11 79 20 58 35 81 53 81
8 0 11 625 11 2140 l0 2140 -4079 0 c-4071 0 -4080 0 -4086 -20 -3 -11 -13
-20 -22 -20 -8 0 -17 9 -20 20 -5 20 -14 20 -394 20 l-389 0 0 -4495z m4326
4400 c7 -18 -12 -45 -32 -45 -17 0 -18 32 -2 48 16 16 27 15 34 -3z m-2860
-90 c9 -22 -23 -66 -41 -59 -18 7 -20 45 -3 62 16 16 37 15 44 -3z m2984 -40
c0 -2 -5 -16 -10 -30 -9 -23 -13 -25 -25 -15 -15 13 -20 51 -9 63 6 6 44 -9
44 -18z m-2603 -832 c3 -7 -5 -17 -16 -23 -18 -9 -21 -8 -21 8 0 32 28 43 37
15z m-267 -302 c0 -55 -20 -82 -48 -64 -25 15 -26 55 -2 86 34 42 50 35 50
-22z m110 -100 c0 -21 -13 -41 -26 -41 -17 0 -17 5 -4 31 11 20 30 26 30 10z
m-56 -113 c3 -13 6 -34 6 -48 0 -14 7 -34 15 -44 8 -11 15 -27 15 -36 0 -13
-92 -120 -104 -120 -2 0 -7 12 -11 28 -17 71 -55 90 -94 48 -39 -41 -55 -24
-47 50 4 35 9 70 12 78 10 27 36 27 61 0 l24 -27 42 39 c23 22 43 42 45 47 8
15 30 6 36 -15z m-202 -345 c24 -22 23 -35 -4 -31 -15 2 -24 11 -26 26 -4 26
5 28 30 5z m2612 -233 c28 -6 70 -20 95 -32 37 -17 55 -19 110 -13 75 8 211 9
289 1 28 -2 52 -1 52 4 0 4 13 10 29 12 33 5 94 -21 122 -51 10 -11 26 -22 36
-25 26 -9 45 -53 26 -60 -8 -3 -11 -11 -7 -17 4 -8 9 -7 15 2 8 12 11 12 18
-1 11 -16 5 -31 -12 -29 -24 3 -37 -1 -37 -12 0 -15 26 -39 43 -39 9 0 17 -15
21 -40 6 -37 9 -40 51 -51 25 -6 45 -14 45 -18 0 -4 14 -15 31 -25 33 -19 69
-52 69 -62 0 -10 28 -34 39 -34 6 0 11 -7 11 -15 0 -9 7 -18 16 -22 8 -3 13
-12 10 -19 -3 -7 -1 -16 4 -19 6 -4 10 -10 10 -15 0 -10 -59 7 -75 21 -12 11
-72 12 -79 1 -3 -5 -19 -7 -37 -6 -18 1 -50 -5 -71 -13 -20 -8 -43 -13 -50
-10 -7 2 -29 -2 -50 -9 -20 -7 -39 -10 -42 -7 -3 4 -6 2 -6 -4 0 -12 -77 -34
-95 -27 -7 3 -29 -2 -49 -10 -26 -11 -36 -12 -36 -3 0 7 -7 3 -15 -7 -14 -19
-15 -19 -15 -2 0 14 -3 16 -13 7 -8 -6 -17 -8 -21 -4 -4 4 -4 0 -1 -9 4 -9 0
-18 -9 -21 -9 -4 -16 -17 -16 -29 0 -17 -3 -19 -9 -9 -6 9 -11 10 -15 2 -4 -6
-12 -8 -18 -5 -6 4 -5 -3 2 -16 9 -17 9 -29 1 -48 -10 -20 -8 -37 8 -86 10
-33 24 -93 30 -132 16 -93 43 -128 100 -128 34 0 41 -3 41 -18 0 -15 5 -18 21
-13 15 5 33 -2 62 -23 43 -30 67 -32 67 -5 0 11 6 10 30 -7 16 -12 35 -18 41
-15 6 4 17 -1 24 -12 12 -17 27 -19 104 -20 51 0 91 4 91 9 0 5 9 7 19 3 13
-4 27 1 40 14 12 12 25 21 31 21 5 0 17 8 27 19 19 19 67 36 57 20 -3 -5 6 -9
20 -9 14 0 26 6 27 13 0 6 4 3 9 -8 6 -13 9 -15 9 -5 1 12 3 12 10 2 4 -7 6
-30 4 -51 -3 -28 0 -40 12 -44 21 -9 19 -27 -2 -27 -15 0 -16 -2 -3 -10 12 -8
12 -11 -3 -28 -9 -10 -17 -25 -17 -34 0 -8 -7 -28 -15 -45 -12 -24 -13 -37 -4
-62 9 -24 9 -35 0 -44 -9 -9 -14 -8 -21 3 -8 13 -10 13 -10 -2 0 -9 5 -18 12
-20 6 -2 8 -10 4 -17 -5 -7 -14 -10 -22 -7 -8 3 -14 -1 -14 -9 0 -8 7 -15 15
-15 13 0 13 -3 3 -20 -12 -18 -13 -19 -20 -2 -5 9 -6 1 -3 -20 5 -31 3 -37
-10 -32 -19 8 -48 -15 -41 -33 3 -7 -1 -13 -9 -13 -8 0 -18 -1 -22 -2 -5 -2
-8 4 -8 12 0 28 -20 25 -22 -2 -1 -16 2 -28 8 -28 5 0 9 -4 9 -10 0 -5 -7 -10
-15 -10 -9 0 -12 -6 -9 -15 4 -8 1 -15 -5 -15 -6 0 -11 7 -11 15 0 18 -5 18
-31 5 -10 -6 -19 -20 -19 -30 0 -15 -7 -20 -29 -20 -17 0 -32 -4 -35 -9 -13
-21 -143 -8 -198 20 -10 5 -20 5 -23 -2 -5 -7 -11 -7 -20 1 -7 6 -20 8 -28 4
-25 -9 -36 47 -12 60 29 17 71 59 85 86 19 35 15 65 -25 166 -19 49 -35 94
-35 101 0 12 -110 123 -122 123 -21 0 -3 -36 40 -82 63 -67 84 -102 80 -135
-3 -23 -8 -28 -35 -29 -19 -1 -34 4 -37 12 -3 8 -13 14 -23 14 -10 0 -26 14
-35 30 -26 46 -70 42 -118 -11 -23 -24 -53 -44 -76 -51 -22 -5 -46 -16 -54
-22 -27 -23 -47 -24 -76 -5 -16 10 -46 19 -68 19 -31 0 -45 -7 -72 -36 -19
-19 -34 -46 -34 -59 0 -13 -5 -25 -12 -27 -23 -8 2 -37 42 -49 34 -10 51 -10
88 1 68 19 122 24 134 12 6 -6 11 -24 10 -40 0 -25 2 -28 24 -24 16 3 35 -4
57 -20 17 -14 43 -29 57 -33 14 -4 33 -14 42 -22 9 -9 30 -16 45 -17 15 -1 42
-9 58 -18 17 -8 35 -13 41 -11 6 2 17 -3 24 -12 18 -21 1 -20 -92 9 -64 20
-79 22 -88 11 -13 -16 -116 -49 -141 -46 -8 1 -26 -9 -40 -22 -13 -13 -46 -29
-74 -35 -110 -25 -122 -26 -118 -11 3 10 -18 2 -97 -35 l-55 -25 -25 24 c-15
14 -29 25 -33 25 -4 0 -23 -14 -42 -31 -38 -35 -58 -102 -48 -162 11 -72 46
-66 115 17 34 42 100 65 125 45 15 -12 16 -12 10 3 -9 25 19 31 173 34 166 3
234 -4 217 -21 -14 -13 -55 -25 -107 -29 -19 -2 -48 -8 -63 -15 -16 -6 -42
-11 -58 -11 -16 0 -29 -4 -29 -10 0 -15 -33 -12 -56 5 -19 14 -64 21 -64 9 0
-12 46 -43 65 -44 20 0 100 -26 119 -37 14 -9 -23 -21 -66 -22 -21 -1 -38 -6
-38 -12 0 -6 7 -9 15 -5 12 4 14 0 9 -19 -4 -15 -2 -25 5 -25 6 0 11 -7 11
-15 0 -9 6 -18 14 -21 8 -3 18 -18 21 -33 7 -35 54 -51 144 -51 46 0 63 -4 67
-15 4 -8 11 -15 16 -15 11 0 48 -38 48 -50 0 -15 -96 -54 -127 -51 -13 1 -23
-3 -23 -9 0 -6 -8 -13 -17 -17 -10 -3 -26 -13 -35 -21 -14 -12 -21 -12 -32 -3
-8 7 -17 8 -19 3 -3 -4 -24 -9 -47 -10 -31 -2 -46 2 -56 15 -11 15 -15 16 -23
4 -5 -8 -7 -21 -3 -29 4 -12 1 -14 -14 -8 -10 5 -26 9 -34 10 -8 0 -22 7 -30
15 -13 13 -15 12 -18 -12 -6 -49 -27 -29 -24 22 0 8 -5 20 -12 27 -10 10 -16
9 -30 -7 -18 -21 -36 -17 -36 7 0 12 -4 12 -20 4 -17 -9 -20 -8 -20 9 0 17
-18 31 -41 31 -6 0 -15 -13 -20 -29 -8 -22 -15 -28 -30 -24 -16 5 -18 12 -14
47 5 36 4 38 -6 18 -7 -13 -18 -21 -25 -18 -7 3 -15 0 -18 -7 -2 -7 -5 -5 -5
5 -1 10 -13 19 -31 23 -18 4 -27 11 -23 18 4 6 0 8 -10 4 -9 -3 -19 -2 -22 4
-4 5 -11 6 -17 3 -6 -4 -22 6 -34 21 -13 16 -26 26 -30 22 -4 -3 -1 -13 6 -22
8 -10 9 -15 1 -15 -6 0 -11 5 -11 11 0 5 -4 7 -10 4 -5 -3 -10 1 -10 10 0 10
-5 13 -12 9 -7 -5 -9 -2 -5 9 4 10 2 14 -6 11 -27 -10 -111 146 -152 278 -28
92 -38 109 -53 82 -5 -10 -27 -18 -54 -21 -41 -5 -50 -2 -81 26 -30 28 -35 39
-40 90 -3 32 -16 85 -30 117 -14 33 -28 78 -31 102 -7 48 -52 169 -72 192 -7
9 -30 17 -50 18 -46 3 -131 39 -138 58 -3 8 -12 14 -20 14 -8 0 -16 10 -18 22
-2 19 -11 24 -51 30 -83 11 -102 47 -41 73 55 23 122 17 188 -17 10 -5 38 -16
62 -23 l44 -13 0 33 c0 46 52 66 65 25 9 -27 25 -25 25 3 1 20 2 20 11 4 6 -9
14 -15 18 -12 5 2 14 -9 21 -25 7 -16 17 -28 23 -27 6 1 19 -29 29 -68 10 -38
24 -75 29 -81 8 -9 3 -28 -15 -64 -33 -65 -33 -70 4 -70 23 0 30 5 30 19 0 29
11 52 22 45 13 -8 1 124 -19 206 -12 45 -17 115 -17 230 -1 166 3 195 45 341
10 37 21 90 24 119 3 29 8 57 12 63 3 5 9 25 14 44 6 30 5 36 -12 40 -22 6
-22 7 -10 50 5 18 6 35 1 38 -13 8 -4 66 18 117 19 42 42 65 65 66 12 1 58 52
46 52 -6 0 -6 7 1 20 9 17 8 20 -10 20 -26 0 -26 16 0 30 11 6 20 8 20 4 0 -3
6 -1 14 6 8 6 12 18 9 26 -4 11 2 13 23 9 20 -4 41 2 69 19 25 16 33 25 23 26
-20 0 -25 20 -5 20 7 0 20 9 30 20 9 11 27 20 39 20 18 0 20 2 8 10 -8 5 -12
12 -9 15 7 7 23 7 192 5 78 -1 133 2 139 8 6 6 17 7 27 2 9 -5 38 -14 65 -20z
m-1935 -350 c24 -17 29 -28 34 -87 4 -44 14 -77 27 -95 25 -35 25 -59 -1 -92
-17 -22 -24 -24 -41 -15 -11 6 -33 8 -49 5 -23 -4 -32 0 -49 23 -11 16 -20 34
-20 41 0 6 -11 31 -25 56 -14 25 -25 53 -25 62 0 10 -5 23 -12 30 -17 17 10
62 47 78 43 19 83 17 114 -6z m-506 -65 c7 -44 -7 -95 -25 -95 -5 0 -22 7 -38
15 -30 16 -41 45 -17 45 6 1 0 8 -15 16 -45 24 -35 51 27 71 43 15 61 1 68
-52z m21 -231 c20 -19 20 -28 2 -63 -25 -47 -42 -56 -71 -37 -14 9 -25 23 -25
31 0 26 22 63 44 73 29 14 32 14 50 -4z m-680 -5 c47 -22 45 -59 -3 -59 -20 0
-34 8 -45 25 -15 23 -15 25 1 25 15 0 16 2 3 10 -13 8 -13 10 2 10 9 0 28 -5
42 -11z m3936 -189 c0 -5 -5 -10 -11 -10 -5 0 -7 5 -4 10 3 6 8 10 11 10 2 0
4 -4 4 -10z m-3595 -215 c40 -16 60 -55 51 -98 -10 -52 -52 -72 -95 -46 -14
10 -26 8 -57 -9 -56 -30 -84 -33 -121 -16 -38 19 -113 97 -113 119 0 47 252
85 335 50z m369 -54 c26 -28 13 -61 -24 -61 -41 0 -76 15 -84 36 -16 41 75 61
108 25z m766 -33 c56 -29 62 -48 18 -49 -60 -3 -79 -6 -91 -18 -15 -15 -78
-13 -99 3 -26 20 -22 41 14 71 27 23 38 26 74 21 22 -3 60 -16 84 -28z m-654
-210 c73 -26 40 -82 -47 -80 -72 1 -121 46 -87 80 15 15 92 15 134 0z m-458
-23 c10 -9 11 -27 5 -71 -8 -55 -11 -60 -45 -76 -20 -10 -54 -20 -76 -24 -37
-6 -41 -4 -74 37 -42 53 -55 110 -29 133 9 8 26 13 36 10 11 -3 38 -1 60 4 47
11 105 5 123 -13z m692 15 c0 -5 7 -10 16 -10 11 0 14 -8 12 -27 -4 -33 -31
-34 -62 -3 -16 16 -17 22 -6 34 14 18 40 21 40 6z m3615 -270 c-3 -5 -11 -10
-16 -10 -6 0 -7 5 -4 10 3 6 11 10 16 10 6 0 7 -4 4 -10z m-418 -56 c-3 -3
-12 -4 -19 -1 -8 3 -5 6 6 6 11 1 17 -2 13 -5z m409 -46 c5 -7 3 -8 -6 -3 -10
6 -12 2 -7 -16 6 -23 5 -23 -8 -5 -12 16 -12 22 -2 28 15 10 15 10 23 -4z
m-436 -8 c0 -5 -2 -10 -4 -10 -3 0 -8 5 -11 10 -3 6 -1 10 4 10 6 0 11 -4 11
-10z m400 -30 c0 -5 -7 -10 -15 -10 -8 0 -15 5 -15 10 0 6 7 10 15 10 8 0 15
-4 15 -10z m-2838 -21 c10 -5 18 -14 18 -19 0 -22 60 -73 87 -74 24 -1 28 -5
25 -26 -4 -34 -14 -42 -56 -42 -22 0 -36 -5 -36 -12 0 -7 -9 -21 -20 -31 -11
-10 -20 -24 -20 -32 0 -8 -4 -11 -10 -8 -5 3 -10 1 -10 -4 0 -23 -63 -38 -120
-28 -30 4 -67 6 -82 3 -16 -3 -31 0 -39 10 -6 8 -20 12 -30 9 -14 -5 -24 3
-39 27 -27 45 -26 98 4 132 21 26 27 27 71 21 27 -3 52 -8 57 -11 4 -3 13 15
19 39 9 37 16 46 42 55 35 11 111 6 139 -9z m-1424 -69 c16 -92 15 -110 -5
-132 -28 -31 -133 -15 -133 20 0 10 -7 26 -15 36 -20 27 -19 55 3 62 9 3 29
12 44 20 14 8 33 14 42 14 9 0 17 7 17 15 1 13 3 22 8 40 0 2 7 2 14 -1 7 -2
18 -36 25 -74z m282 60 c0 -5 7 -10 15 -10 8 0 15 -8 15 -17 0 -10 16 -29 35
-43 37 -27 55 -58 55 -93 0 -34 -13 -46 -50 -47 -19 -1 -52 -2 -72 -2 -21 -1
-38 -6 -38 -11 0 -17 -38 23 -50 54 -22 52 32 179 75 179 8 0 15 -4 15 -10z
m404 -182 c13 -18 26 -44 28 -58 3 -24 1 -25 -41 -23 -54 3 -65 12 -63 59 2
62 38 71 76 22z m776 -362 c36 1 92 3 125 5 68 4 145 -15 145 -36 0 -7 -22
-23 -48 -35 -72 -33 -93 -78 -55 -121 12 -15 11 -19 -13 -38 -39 -30 -70 -36
-126 -21 -27 6 -60 9 -74 6 -15 -4 -44 0 -69 9 -34 13 -50 15 -81 6 -59 -16
-119 -14 -143 7 -12 10 -30 46 -41 85 l-19 69 24 24 c30 30 33 30 74 0 l32
-24 32 29 c35 32 97 50 142 41 17 -4 59 -6 95 -6z m599 -9 c6 -9 10 -54 8
-122 -2 -88 -5 -110 -19 -118 -31 -20 -48 8 -48 78 0 34 -6 80 -14 102 -15 41
-11 56 14 66 26 10 47 7 59 -6z m1209 -94 c-4 -25 -68 -32 -68 -8 0 12 6 15
20 10 11 -4 20 -2 20 4 0 6 7 11 16 11 9 0 14 -7 12 -17z m37 7 c-3 -5 -11
-10 -16 -10 -6 0 -7 5 -4 10 3 6 11 10 16 10 6 0 7 -4 4 -10z m-951 -167 c44
-51 83 -93 86 -93 4 0 13 -12 21 -27 8 -16 24 -36 37 -46 12 -10 22 -25 22
-33 0 -8 3 -14 8 -14 4 0 29 -18 56 -40 26 -22 57 -40 67 -40 10 0 19 -4 19
-9 0 -9 104 -62 118 -60 20 3 32 -2 27 -11 -4 -6 8 -10 29 -10 25 0 38 -6 46
-20 7 -13 22 -20 43 -21 18 -1 25 -3 16 -6 -11 -3 -15 -12 -11 -30 3 -19 1
-24 -7 -18 -8 4 -14 -1 -18 -14 -3 -12 -9 -21 -14 -21 -4 0 -11 -16 -15 -37
-5 -28 -3 -39 10 -48 15 -11 15 -13 1 -19 -13 -5 -13 -8 5 -26 11 -11 25 -20
31 -20 5 0 7 -4 4 -10 -3 -5 -1 -10 6 -10 7 0 5 -6 -6 -13 -21 -16 -13 -37 15
-37 10 0 21 -4 25 -9 7 -13 -32 -34 -47 -25 -7 4 -8 3 -4 -4 4 -7 18 -12 32
-12 14 0 22 4 19 10 -9 15 8 12 33 -6 22 -15 22 -17 7 -34 -11 -12 -12 -19 -5
-22 16 -5 2 -55 -16 -62 -10 -4 -12 -2 -8 6 5 8 -1 9 -21 4 -33 -8 -53 -27
-47 -44 2 -6 -3 -12 -12 -12 -9 0 -16 -7 -16 -15 0 -8 5 -15 10 -15 6 0 10 -4
10 -10 0 -5 -7 -10 -15 -10 -8 0 -15 5 -15 11 0 8 -5 8 -15 -1 -10 -9 -15 -9
-15 -1 0 16 -27 13 -34 -4 -4 -11 1 -15 19 -15 25 0 33 -14 15 -25 -16 -10
-11 -25 8 -25 24 0 29 -58 6 -67 -8 -3 -14 -11 -14 -19 0 -7 6 -11 14 -8 8 3
17 1 21 -5 3 -6 0 -11 -7 -11 -9 -1 -7 -5 5 -14 9 -7 15 -20 12 -28 -5 -12 0
-14 20 -10 22 4 26 1 23 -15 -1 -11 2 -26 8 -34 6 -8 17 -30 24 -49 8 -19 22
-46 32 -59 10 -13 15 -27 12 -32 -3 -5 -1 -9 4 -9 5 0 22 -12 37 -26 21 -20
34 -24 54 -19 37 10 150 11 144 3 -11 -19 58 -5 115 22 35 17 68 28 73 25 5
-4 18 3 30 14 26 24 82 38 87 23 2 -6 10 -8 18 -5 9 3 19 -7 29 -31 8 -19 15
-37 15 -40 0 -9 -69 -28 -170 -47 -90 -16 -137 -19 -330 -15 -253 4 -334 16
-510 72 -132 42 -337 141 -460 222 -107 71 -226 190 -265 263 -28 54 -28 58
-12 82 9 14 56 51 104 82 116 76 203 153 247 220 36 54 37 56 42 182 4 70 1
184 -5 253 -6 69 -14 157 -17 195 -8 82 -19 88 110 -62z m-534 97 c27 -27 25
-44 -5 -64 -31 -21 -64 -20 -87 1 -25 23 -22 35 15 61 39 27 51 28 77 2z
m-1037 -17 c-7 -2 -19 -2 -25 0 -7 3 -2 5 12 5 14 0 19 -2 13 -5z m625 -195
c47 -12 57 -21 45 -40 -4 -7 -6 -22 -5 -34 3 -24 -18 -34 -118 -55 -125 -25
-177 -10 -206 58 -21 48 -18 70 11 80 33 11 220 5 273 -9z m499 -21 c10 -9 10
-17 0 -37 -11 -22 -19 -25 -62 -23 -28 1 -66 5 -85 8 -23 4 -51 0 -80 -11 -25
-9 -63 -17 -85 -18 -33 -1 -42 3 -55 26 -18 33 -7 58 31 70 38 11 322 -1 336
-15z m148 3 c4 -6 4 -18 1 -26 -5 -12 -9 -12 -26 -2 -11 7 -20 18 -20 25 0 16
36 17 45 3z m2992 -152 c13 -12 23 -25 23 -30 0 -10 -84 -48 -105 -48 -7 0
-22 8 -34 18 l-21 17 20 33 c16 27 26 32 57 32 24 0 45 -8 60 -22z m-572 -452
c20 -20 22 -29 15 -62 -16 -79 -91 -211 -113 -197 -7 4 -8 -1 -3 -12 6 -16 4
-16 -11 -4 -15 13 -16 12 -11 -8 4 -17 2 -20 -10 -16 -11 5 -14 2 -9 -9 4 -12
-2 -18 -20 -23 -14 -3 -34 -16 -45 -28 -11 -12 -16 -15 -11 -7 10 19 11 100 1
100 -12 0 2 81 18 107 8 12 14 36 14 53 0 16 5 30 11 30 6 0 9 6 6 13 -2 6
-10 11 -17 9 -10 -2 -11 0 -2 11 9 10 9 16 -1 26 -9 9 -9 14 2 20 9 6 10 11 3
15 -6 4 -9 20 -7 37 3 21 -2 33 -16 42 -10 6 -19 15 -19 19 0 13 200 -91 225
-116z m-1580 -296 c-3 -5 -12 -10 -18 -10 -7 0 -6 4 3 10 19 12 23 12 15 0z
m1081 -299 c-8 -12 -46 -21 -46 -11 0 5 10 11 23 13 12 2 23 5 25 6 2 0 1 -3
-2 -8z m-81 -38 c-39 -21 -85 -25 -85 -7 0 8 5 12 10 9 6 -3 10 -2 10 2 0 15
63 30 78 19 11 -8 8 -13 -13 -23z m-105 -33 c-8 -5 -26 -9 -40 -9 l-25 1 25 8
c14 4 32 8 40 9 13 1 13 0 0 -9z"/>
<path d="M3645 6142 c-22 -2 -42 -7 -45 -10 -6 -8 -47 -32 -55 -32 -4 0 -3 6
1 13 4 6 -6 -3 -23 -20 -16 -18 -33 -30 -36 -27 -3 4 -13 -1 -22 -10 -9 -9
-20 -14 -24 -12 -4 3 -15 -9 -25 -26 -13 -20 -21 -26 -26 -18 -13 22 -50 -72
-50 -128 0 -29 3 -52 6 -52 11 0 34 29 34 43 0 30 35 77 62 83 16 3 34 15 42
26 11 15 29 22 65 25 28 2 62 8 76 13 35 13 114 13 154 -1 37 -13 43 -46 9
-54 -13 -2 -54 -12 -93 -20 -112 -24 -193 -65 -246 -122 -35 -39 -40 -48 -33
-76 8 -39 28 -52 77 -48 20 1 37 -2 37 -8 0 -19 107 -61 157 -61 47 -1 47 -1
23 -15 l-25 -14 25 -2 c14 -1 28 -1 31 -1 4 1 40 2 80 3 63 2 83 7 136 36 63
35 99 74 89 99 -4 9 2 14 15 14 17 0 20 5 17 25 -4 19 2 29 28 47 19 13 34 30
35 38 2 45 12 78 29 102 11 15 21 35 22 45 4 46 -3 74 -19 80 -10 4 -21 11
-24 16 -4 5 -29 18 -57 27 -39 14 -60 16 -90 9 -21 -4 -54 -6 -73 -3 -94 14
-219 21 -284 16z m137 -245 c-6 -7 -22 -13 -36 -15 -13 -1 -51 -12 -83 -24
-32 -12 -64 -23 -71 -24 -8 -1 -22 -10 -33 -20 -33 -30 -21 -7 14 26 40 38
118 69 176 69 34 1 41 -2 33 -12z m-115 -179 c-3 -8 -6 -5 -6 6 -1 11 2 17 5
13 3 -3 4 -12 1 -19z m56 -8 c16 0 -14 -20 -30 -20 -7 0 -13 7 -13 16 0 11 5
14 16 10 9 -3 21 -6 27 -6z m57 -14 c0 -2 -7 -6 -15 -10 -8 -3 -15 -1 -15 4 0
6 7 10 15 10 8 0 15 -2 15 -4z"/>
<path d="M4630 5585 c0 -5 5 -17 10 -25 5 -8 10 -10 10 -5 0 6 -5 17 -10 25
-5 8 -10 11 -10 5z"/>
<path d="M3010 5470 c0 -22 29 -89 48 -108 6 -7 12 -20 12 -27 0 -22 23 -8 42
26 l18 30 -47 50 c-48 52 -73 62 -73 29z"/>
<path d="M5040 5170 c0 -5 5 -10 11 -10 5 0 7 5 4 10 -3 6 -8 10 -11 10 -2 0
-4 -4 -4 -10z"/>
<path d="M4905 5080 c-3 -5 -1 -10 4 -10 6 0 11 5 11 10 0 6 -2 10 -4 10 -3 0
-8 -4 -11 -10z"/>
<path d="M3835 4480 c-4 -7 -2 -16 5 -20 7 -4 9 -13 6 -19 -4 -6 -1 -11 7 -11
16 0 16 35 0 51 -8 8 -13 7 -18 -1z"/>
<path d="M3855 4350 c-3 -5 -2 -10 4 -10 5 0 13 5 16 10 3 6 2 10 -4 10 -5 0
-13 -4 -16 -10z"/>
<path d="M4245 3420 c3 -5 13 -10 21 -10 8 0 12 5 9 10 -3 6 -13 10 -21 10 -8
0 -12 -4 -9 -10z"/>
<path d="M4140 3286 c0 -2 7 -7 16 -10 8 -3 12 -2 9 4 -6 10 -25 14 -25 6z"/>
<path d="M8969 4552 c-9 -2 -19 -14 -22 -28 -3 -19 1 -27 17 -34 16 -6 22 -3
24 11 6 33 -2 55 -19 51z"/>
<path d="M5824 1322 c-57 -52 -104 -124 -149 -222 -16 -36 -51 -93 -77 -127
l-47 -61 33 -6 c47 -9 115 2 166 26 66 32 166 134 179 183 24 87 9 195 -32
233 l-23 21 -50 -47z"/>
<path d="M4806 1100 c-35 -31 -94 -135 -83 -146 15 -16 172 137 164 160 -8 23
-46 17 -81 -14z"/>
<path d="M4470 1113 c-22 -3 -28 -15 -54 -101 -16 -53 -31 -105 -34 -114 -2
-11 7 -22 28 -33 54 -28 59 -22 105 124 21 67 24 90 16 108 -6 13 -16 22 -23
22 -7 -1 -24 -4 -38 -6z"/>
<path d="M4991 991 c-98 -171 -118 -194 -190 -227 -64 -30 -96 -26 -136 16
-16 17 -32 30 -36 30 -5 0 -36 -16 -70 -36 -34 -20 -69 -37 -78 -37 -20 -1
-102 24 -117 35 -8 6 -14 -6 -19 -39 -3 -27 -13 -70 -21 -97 -8 -27 -13 -50
-11 -51 7 -5 315 33 452 56 28 5 113 13 190 19 77 6 185 20 240 31 68 14 143
21 235 22 182 2 506 -13 555 -25 22 -6 87 -20 145 -33 58 -13 120 -28 138 -33
17 -6 68 -14 112 -18 95 -8 123 5 139 63 13 45 14 113 3 113 -4 0 -32 -25 -62
-55 -39 -40 -62 -55 -81 -55 -36 0 -69 42 -69 86 0 19 -4 34 -8 34 -4 0 -26
-18 -47 -40 -43 -44 -53 -47 -95 -25 -39 20 -64 69 -57 110 5 28 43 104 80
157 8 13 9 20 1 28 -8 8 -18 1 -35 -27 -53 -86 -107 -130 -183 -149 -28 -7
-71 -20 -96 -30 -70 -26 -215 -24 -322 5 l-87 23 -67 -33 c-89 -44 -167 -47
-197 -8 l-19 27 -36 -24 c-43 -29 -71 -30 -105 -4 -48 38 -42 133 14 211 12
17 20 31 18 32 -2 2 -11 8 -19 14 -12 9 -23 -2 -59 -66z"/>
<path d="M4545 979 c-4 -6 -5 -12 -2 -15 2 -3 7 2 10 11 7 17 1 20 -8 4z"/>
<path d="M5280 915 c-17 -20 -5 -45 20 -45 12 0 35 7 52 16 30 16 31 17 13 30
-25 18 -69 18 -85 -1z"/>
<path d="M4516 905 c-9 -26 -7 -32 5 -12 6 10 9 21 6 23 -2 3 -7 -2 -11 -11z"/>
<path d="M3302 598 c-7 -7 -12 -23 -12 -36 0 -25 48 -52 95 -52 20 0 25 5 25
25 0 52 -75 96 -108 63z"/>
<path d="M4528 563 c-21 -2 -38 -8 -38 -13 0 -10 78 -2 100 10 16 10 11 10
-62 3z"/>
<path d="M6248 563 c6 -2 18 -2 25 0 6 3 1 5 -13 5 -14 0 -19 -2 -12 -5z"/>
<path d="M6368 553 c6 -2 18 -2 25 0 6 3 1 5 -13 5 -14 0 -19 -2 -12 -5z"/>
<path d="M4448 543 c6 -2 18 -2 25 0 6 3 1 5 -13 5 -14 0 -19 -2 -12 -5z"/>
</g>
</svg>
